<svg width="110" height="110" viewBox="0 0 110 110" fill="none" xmlns="http://www.w3.org/2000/svg">
<path d="M75 0H35C15.67 0 0 15.67 0 35V75C0 94.33 15.67 110 35 110H75C94.33 110 110 94.33 110 75V35C110 15.67 94.33 0 75 0Z" fill="url(#paint0_linear_2143_54)"/>
<path d="M80 48.7501L78.3093 50.4408C77.3594 51.3908 76.2623 52.1814 75.0607 52.7823L71.4877 54.5688L55.4313 38.5124L57.2179 34.9394C57.8187 33.7378 58.6095 32.6409 59.5594 31.6908L61.2501 30.0001C61.2501 30 80 48.7501 80 48.7501Z" fill="white"/>
<path d="M67.2588 59.1779C63.3342 65.374 64.3749 70.625 64.3749 70.625L29.9999 80L39.3748 45.625C39.3748 45.625 44.6259 46.6657 50.822 42.7411C50.8221 42.7411 67.2588 59.1779 67.2588 59.1779V59.1779ZM42.4999 62.8125C42.4999 65.4013 44.5986 67.5 47.1874 67.5C49.7762 67.5 51.8749 65.4013 51.8749 62.8125C51.8749 60.2237 49.7762 58.125 47.1874 58.125C44.5986 58.125 42.4999 60.2237 42.4999 62.8125Z" fill="white"/>
<defs>
<linearGradient id="paint0_linear_2143_54" x1="91.5" y1="110" x2="17.5" y2="8.5" gradientUnits="userSpaceOnUse">
<stop stop-color="#FFCC40"/>
<stop offset="1" stop-color="#FFCC40" stop-opacity="0.5"/>
</linearGradient>
</defs>
</svg>
