<svg width="1290" height="200" viewBox="0 0 1290 200" fill="none" xmlns="http://www.w3.org/2000/svg">
<path d="M1274.26 0H15.7445C7.04906 0 0 6.71573 0 15V185C0 193.284 7.04906 200 15.7445 200H1274.26C1282.95 200 1290 193.284 1290 185V15C1290 6.71573 1282.95 0 1274.26 0Z" fill="#8D448B"/>
<g opacity="0.5">
<path d="M778.064 69.8921C785.504 65.3248 793.888 62.4751 802.293 61.6699C809.457 60.9683 816.901 61.7457 823.99 63.8917L824.234 61.0445C816.864 58.9164 809.361 58.1759 802.028 58.8771C793.2 59.73 784.413 62.7131 776.605 67.5007C768.796 72.2883 762.17 78.7861 757.416 86.2836C756.074 88.3932 754.895 90.5727 753.864 92.8069C741.681 96.4224 730.84 103.133 720.9 109.948C718.479 111.602 716.038 113.324 713.686 114.983C705.07 121.03 696.172 127.278 686.614 131.916C675.83 137.148 663.749 140.38 651.674 141.263C639.26 142.173 627.218 140.708 615.88 136.897C611.232 135.324 606.715 133.356 602.437 131.045L602.179 134.059C606.331 136.205 610.58 138.038 614.998 139.521C621.904 141.848 629.077 143.329 636.408 143.957C641.49 144.392 646.663 144.416 651.884 144.037C664.297 143.128 676.736 139.8 687.84 134.413C697.588 129.679 706.59 123.371 715.281 117.26C717.633 115.601 720.073 113.893 722.479 112.252C731.631 105.985 741.515 99.8219 752.456 96.1839C749.152 104.883 748.27 114.041 750.068 122.435C751.395 128.663 754.306 134.522 758.477 139.385C762.8 144.428 768.198 148.038 774.101 149.816C780.14 151.649 786.861 151.399 793.038 149.158C799.376 146.846 804.509 142.599 807.516 137.204C810.838 131.249 811.591 123.926 809.631 116.595C807.777 109.665 803.574 103.219 798.083 98.9019C792.763 94.7248 786.295 92.0165 778.898 90.8653C772.204 89.8165 764.946 90.1323 757.911 91.7683C757.754 91.8108 757.598 91.8394 757.44 91.8819C758.146 90.5013 758.933 89.1417 759.774 87.8147C764.304 80.6477 770.624 74.4595 778.064 69.8921ZM758.533 94.4658C765.226 92.9124 772.118 92.6212 778.466 93.6125C785.395 94.6955 791.417 97.2118 796.357 101.091C801.376 105.032 805.234 110.944 806.927 117.301C808.695 123.93 808.033 130.519 805.074 135.834C799.62 145.636 786.356 150.6 774.89 147.142C769.504 145.519 764.558 142.2 760.577 137.564C756.712 133.05 754.015 127.628 752.775 121.856C750.945 113.347 752.085 103.945 755.874 95.1475C756.763 94.8878 757.649 94.6699 758.533 94.4658Z" fill="white"/>
<path d="M850 70.307L823.441 46.0615L823.054 56.7363L841.648 66.873L822.912 60.6774L822.911 60.6876L822.911 60.6754L814.712 63.379L822.695 66.6615L822.421 74.2449L850 70.307Z" fill="white"/>
</g>
<g opacity="0.5">
<rect x="1044.47" y="39.8921" width="22.0884" height="3.6814" rx="1.8407" transform="rotate(42.1773 1044.47 39.8921)" fill="white"/>
<rect x="1095.75" y="54.7236" width="22.0884" height="3.6814" rx="1.8407" transform="rotate(-42.18 1095.75 54.7236)" fill="white"/>
<rect x="1081" y="32" width="23" height="3" rx="1.5" transform="rotate(90 1081 32)" fill="white"/>
</g>
<g opacity="0.5">
<rect width="22.3383" height="3.72305" rx="1.86152" transform="matrix(0.741071 -0.671427 -0.671427 -0.741071 1044.09 159.614)" fill="white"/>
<rect width="22.3383" height="3.72305" rx="1.86152" transform="matrix(0.741039 0.671462 0.671462 -0.741039 1095.95 144.615)" fill="white"/>
<rect width="23.2602" height="3.03394" rx="1.51697" transform="matrix(0 -1 -1 0 1081.03 167.596)" fill="white"/>
</g>
<path d="M1205.31 70H950.69C949.204 70 948 71.3431 948 73V127C948 128.657 949.204 130 950.69 130H1205.31C1206.8 130 1208 128.657 1208 127V73C1208 71.3431 1206.8 70 1205.31 70Z" fill="white"/>
<path d="M993.156 106V94.1H995.332V99.047H1000.67V94.1H1002.85V106H1000.67V100.815H995.332V106H993.156ZM1006.86 106V94.1H1009.03V106H1006.86ZM1013.04 106V94.1H1017.41C1018.36 94.1 1019.14 94.2643 1019.76 94.593C1020.38 94.9103 1020.84 95.3467 1021.15 95.902C1021.46 96.446 1021.61 97.0523 1021.61 97.721C1021.61 98.4463 1021.42 99.1093 1021.03 99.71C1020.66 100.311 1020.07 100.747 1019.26 101.019L1021.73 106H1019.23L1017.02 101.308H1015.22V106H1013.04ZM1015.22 99.71H1017.27C1018 99.71 1018.53 99.5343 1018.87 99.183C1019.21 98.8317 1019.38 98.367 1019.38 97.789C1019.38 97.2223 1019.21 96.769 1018.87 96.429C1018.54 96.089 1018.01 95.919 1017.26 95.919H1015.22V99.71ZM1025.33 106V94.1H1033.1V95.851H1027.51V99.115H1032.59V100.815H1027.51V104.249H1033.1V106H1025.33ZM1042.61 106V94.1H1046.68C1048.07 94.1 1049.21 94.3493 1050.11 94.848C1051.02 95.3353 1051.68 96.0267 1052.12 96.922C1052.56 97.806 1052.78 98.8487 1052.78 100.05C1052.78 101.251 1052.56 102.3 1052.12 103.195C1051.68 104.079 1051.02 104.77 1050.11 105.269C1049.21 105.756 1048.07 106 1046.68 106H1042.61ZM1044.79 104.13H1046.57C1047.57 104.13 1048.36 103.971 1048.94 103.654C1049.51 103.325 1049.93 102.861 1050.18 102.26C1050.43 101.648 1050.55 100.911 1050.55 100.05C1050.55 99.2 1050.43 98.469 1050.18 97.857C1049.93 97.245 1049.51 96.7747 1048.94 96.446C1048.36 96.1173 1047.57 95.953 1046.57 95.953H1044.79V104.13ZM1056.4 106V94.1H1064.17V95.851H1058.57V99.115H1063.66V100.815H1058.57V104.249H1064.17V106H1056.4ZM1071.38 106L1067.03 94.1H1069.35L1072.72 103.773L1076.1 94.1H1078.4L1074.05 106H1071.38ZM1081.51 106V94.1H1089.28V95.851H1083.69V99.115H1088.77V100.815H1083.69V104.249H1089.28V106H1081.51ZM1093.04 106V94.1H1095.22V104.3H1100.49V106H1093.04ZM1108.6 106.204C1107.41 106.204 1106.37 105.943 1105.47 105.422C1104.59 104.901 1103.89 104.181 1103.38 103.263C1102.88 102.334 1102.63 101.263 1102.63 100.05C1102.63 98.8373 1102.88 97.772 1103.38 96.854C1103.89 95.9247 1104.59 95.1993 1105.47 94.678C1106.37 94.1567 1107.41 93.896 1108.6 93.896C1109.78 93.896 1110.82 94.1567 1111.71 94.678C1112.61 95.1993 1113.3 95.9247 1113.8 96.854C1114.3 97.772 1114.55 98.8373 1114.55 100.05C1114.55 101.263 1114.3 102.334 1113.8 103.263C1113.3 104.181 1112.61 104.901 1111.71 105.422C1110.82 105.943 1109.78 106.204 1108.6 106.204ZM1108.6 104.249C1109.73 104.249 1110.64 103.875 1111.3 103.127C1111.98 102.379 1112.32 101.353 1112.32 100.05C1112.32 98.7467 1111.98 97.721 1111.3 96.973C1110.64 96.225 1109.73 95.851 1108.6 95.851C1107.47 95.851 1106.56 96.225 1105.88 96.973C1105.2 97.721 1104.86 98.7467 1104.86 100.05C1104.86 101.353 1105.2 102.379 1105.88 103.127C1106.56 103.875 1107.47 104.249 1108.6 104.249ZM1118.17 106V94.1H1122.58C1123.53 94.1 1124.32 94.2587 1124.94 94.576C1125.56 94.8933 1126.03 95.3297 1126.33 95.885C1126.64 96.4403 1126.79 97.0637 1126.79 97.755C1126.79 98.4123 1126.64 99.0187 1126.35 99.574C1126.05 100.118 1125.6 100.56 1124.97 100.9C1124.35 101.229 1123.55 101.393 1122.58 101.393H1120.35V106H1118.17ZM1120.35 99.625H1122.44C1123.2 99.625 1123.74 99.4607 1124.07 99.132C1124.41 98.792 1124.58 98.333 1124.58 97.755C1124.58 97.1657 1124.41 96.7067 1124.07 96.378C1123.74 96.038 1123.2 95.868 1122.44 95.868H1120.35V99.625ZM1130.2 106V94.1H1137.97V95.851H1132.37V99.115H1137.46V100.815H1132.37V104.249H1137.97V106H1130.2ZM1141.73 106V94.1H1146.1C1147.05 94.1 1147.83 94.2643 1148.44 94.593C1149.07 94.9103 1149.53 95.3467 1149.84 95.902C1150.14 96.446 1150.29 97.0523 1150.29 97.721C1150.29 98.4463 1150.1 99.1093 1149.72 99.71C1149.34 100.311 1148.75 100.747 1147.95 101.019L1150.41 106H1147.91L1145.7 101.308H1143.9V106H1141.73ZM1143.9 99.71H1145.96C1146.69 99.71 1147.22 99.5343 1147.56 99.183C1147.9 98.8317 1148.07 98.367 1148.07 97.789C1148.07 97.2223 1147.9 96.769 1147.56 96.429C1147.23 96.089 1146.69 95.919 1145.94 95.919H1143.9V99.71ZM1158.08 106.204C1157.21 106.204 1156.44 106.057 1155.77 105.762C1155.1 105.456 1154.57 105.025 1154.19 104.47C1153.8 103.903 1153.6 103.218 1153.59 102.413H1155.89C1155.91 102.968 1156.11 103.439 1156.48 103.824C1156.87 104.198 1157.4 104.385 1158.06 104.385C1158.64 104.385 1159.1 104.249 1159.44 103.977C1159.78 103.694 1159.95 103.32 1159.95 102.855C1159.95 102.368 1159.8 101.988 1159.49 101.716C1159.2 101.444 1158.8 101.223 1158.3 101.053C1157.8 100.883 1157.27 100.702 1156.7 100.509C1155.79 100.192 1155.08 99.7837 1154.6 99.285C1154.12 98.7863 1153.88 98.1233 1153.88 97.296C1153.87 96.5933 1154.04 95.9927 1154.38 95.494C1154.73 94.984 1155.2 94.593 1155.8 94.321C1156.4 94.0377 1157.1 93.896 1157.88 93.896C1158.67 93.896 1159.37 94.0377 1159.97 94.321C1160.58 94.6043 1161.06 95.001 1161.4 95.511C1161.75 96.021 1161.93 96.6273 1161.96 97.33H1159.63C1159.62 96.9107 1159.45 96.5423 1159.14 96.225C1158.83 95.8963 1158.4 95.732 1157.84 95.732C1157.37 95.7207 1156.97 95.8397 1156.64 96.089C1156.32 96.327 1156.16 96.6783 1156.16 97.143C1156.16 97.5397 1156.29 97.857 1156.53 98.095C1156.78 98.3217 1157.12 98.5143 1157.55 98.673C1157.99 98.8317 1158.48 99.0017 1159.03 99.183C1159.62 99.387 1160.16 99.625 1160.65 99.897C1161.14 100.169 1161.53 100.532 1161.82 100.985C1162.12 101.427 1162.26 101.999 1162.26 102.702C1162.26 103.325 1162.1 103.903 1161.79 104.436C1161.47 104.969 1161 105.399 1160.38 105.728C1159.75 106.045 1158.99 106.204 1158.08 106.204Z" fill="#8D448B"/>
<path d="M72.448 85V59.8H77.056V70.276H88.36V59.8H92.968V85H88.36V74.02H77.056V85H72.448ZM98.742 64.372C97.902 64.372 97.206 64.12 96.654 63.616C96.126 63.112 95.862 62.476 95.862 61.708C95.862 60.94 96.126 60.316 96.654 59.836C97.206 59.332 97.902 59.08 98.742 59.08C99.582 59.08 100.266 59.332 100.794 59.836C101.346 60.316 101.622 60.94 101.622 61.708C101.622 62.476 101.346 63.112 100.794 63.616C100.266 64.12 99.582 64.372 98.742 64.372ZM96.438 85V67.144H101.046V85H96.438ZM104.356 85V67.144H108.46L108.892 70.492C109.54 69.34 110.416 68.428 111.52 67.756C112.648 67.06 113.968 66.712 115.48 66.712V71.572H114.184C113.176 71.572 112.276 71.728 111.484 72.04C110.692 72.352 110.068 72.892 109.612 73.66C109.18 74.428 108.964 75.496 108.964 76.864V85H104.356ZM125.489 85.432C123.689 85.432 122.093 85.048 120.701 84.28C119.309 83.512 118.217 82.432 117.425 81.04C116.633 79.648 116.237 78.04 116.237 76.216C116.237 74.368 116.621 72.724 117.389 71.284C118.181 69.844 119.261 68.728 120.629 67.936C122.021 67.12 123.653 66.712 125.525 66.712C127.277 66.712 128.825 67.096 130.169 67.864C131.513 68.632 132.557 69.688 133.301 71.032C134.069 72.352 134.453 73.828 134.453 75.46C134.453 75.724 134.441 76 134.417 76.288C134.417 76.576 134.405 76.876 134.381 77.188H120.809C120.905 78.58 121.385 79.672 122.249 80.464C123.137 81.256 124.205 81.652 125.453 81.652C126.389 81.652 127.169 81.448 127.793 81.04C128.441 80.608 128.921 80.056 129.233 79.384H133.913C133.577 80.512 133.013 81.544 132.221 82.48C131.453 83.392 130.493 84.112 129.341 84.64C128.213 85.168 126.929 85.432 125.489 85.432ZM125.525 70.456C124.397 70.456 123.401 70.78 122.537 71.428C121.673 72.052 121.121 73.012 120.881 74.308H129.773C129.701 73.132 129.269 72.196 128.477 71.5C127.685 70.804 126.701 70.456 125.525 70.456ZM151.862 85C149.99 85 148.49 84.544 147.362 83.632C146.234 82.72 145.67 81.1 145.67 78.772V70.996H142.61V67.144H145.67L146.21 62.356H150.278V67.144H155.102V70.996H150.278V78.808C150.278 79.672 150.458 80.272 150.818 80.608C151.202 80.92 151.85 81.076 152.762 81.076H154.994V85H151.862ZM157.559 85V59.08H162.167V69.88C162.767 68.896 163.571 68.128 164.579 67.576C165.611 67 166.787 66.712 168.107 66.712C170.315 66.712 172.019 67.408 173.219 68.8C174.443 70.192 175.055 72.232 175.055 74.92V85H170.483V75.352C170.483 73.816 170.171 72.64 169.547 71.824C168.947 71.008 167.987 70.6 166.667 70.6C165.371 70.6 164.291 71.056 163.427 71.968C162.587 72.88 162.167 74.152 162.167 75.784V85H157.559ZM186.637 85.432C184.837 85.432 183.241 85.048 181.849 84.28C180.457 83.512 179.365 82.432 178.573 81.04C177.781 79.648 177.385 78.04 177.385 76.216C177.385 74.368 177.769 72.724 178.537 71.284C179.329 69.844 180.409 68.728 181.777 67.936C183.169 67.12 184.801 66.712 186.673 66.712C188.425 66.712 189.973 67.096 191.317 67.864C192.661 68.632 193.705 69.688 194.449 71.032C195.217 72.352 195.601 73.828 195.601 75.46C195.601 75.724 195.589 76 195.565 76.288C195.565 76.576 195.553 76.876 195.529 77.188H181.957C182.053 78.58 182.533 79.672 183.397 80.464C184.285 81.256 185.353 81.652 186.601 81.652C187.537 81.652 188.317 81.448 188.941 81.04C189.589 80.608 190.069 80.056 190.381 79.384H195.061C194.725 80.512 194.161 81.544 193.369 82.48C192.601 83.392 191.641 84.112 190.489 84.64C189.361 85.168 188.077 85.432 186.637 85.432ZM186.673 70.456C185.545 70.456 184.549 70.78 183.685 71.428C182.821 72.052 182.269 73.012 182.029 74.308H190.921C190.849 73.132 190.417 72.196 189.625 71.5C188.833 70.804 187.849 70.456 186.673 70.456ZM208.547 85L203.327 67.144H207.899L210.995 79.996L214.595 67.144H219.707L223.307 79.996L226.439 67.144H231.011L225.755 85H220.967L217.151 71.644L213.335 85H208.547ZM240.353 85.432C238.625 85.432 237.065 85.036 235.673 84.244C234.305 83.452 233.213 82.36 232.397 80.968C231.605 79.552 231.209 77.92 231.209 76.072C231.209 74.224 231.617 72.604 232.433 71.212C233.249 69.796 234.341 68.692 235.709 67.9C237.101 67.108 238.661 66.712 240.389 66.712C242.093 66.712 243.629 67.108 244.997 67.9C246.389 68.692 247.481 69.796 248.273 71.212C249.089 72.604 249.497 74.224 249.497 76.072C249.497 77.92 249.089 79.552 248.273 80.968C247.481 82.36 246.389 83.452 244.997 84.244C243.605 85.036 242.057 85.432 240.353 85.432ZM240.353 81.436C241.553 81.436 242.597 80.992 243.485 80.104C244.373 79.192 244.817 77.848 244.817 76.072C244.817 74.296 244.373 72.964 243.485 72.076C242.597 71.164 241.565 70.708 240.389 70.708C239.165 70.708 238.109 71.164 237.221 72.076C236.357 72.964 235.925 74.296 235.925 76.072C235.925 77.848 236.357 79.192 237.221 80.104C238.109 80.992 239.153 81.436 240.353 81.436ZM252.117 85V67.144H256.221L256.653 70.492C257.301 69.34 258.177 68.428 259.281 67.756C260.409 67.06 261.729 66.712 263.241 66.712V71.572H261.945C260.937 71.572 260.037 71.728 259.245 72.04C258.453 72.352 257.829 72.892 257.373 73.66C256.941 74.428 256.725 75.496 256.725 76.864V85H252.117ZM264.891 85V59.08H269.499V85H264.891ZM280.915 85.432C279.235 85.432 277.735 85.024 276.415 84.208C275.095 83.392 274.051 82.276 273.283 80.86C272.515 79.444 272.131 77.836 272.131 76.036C272.131 74.236 272.515 72.64 273.283 71.248C274.051 69.832 275.095 68.728 276.415 67.936C277.735 67.12 279.235 66.712 280.915 66.712C282.259 66.712 283.435 66.964 284.443 67.468C285.451 67.972 286.267 68.68 286.891 69.592V59.08H291.499V85H287.395L286.891 82.444C286.315 83.236 285.547 83.932 284.587 84.532C283.651 85.132 282.427 85.432 280.915 85.432ZM281.887 81.4C283.375 81.4 284.587 80.908 285.523 79.924C286.483 78.916 286.963 77.632 286.963 76.072C286.963 74.512 286.483 73.24 285.523 72.256C284.587 71.248 283.375 70.744 281.887 70.744C280.423 70.744 279.211 71.236 278.251 72.22C277.291 73.204 276.811 74.476 276.811 76.036C276.811 77.596 277.291 78.88 278.251 79.888C279.211 80.896 280.423 81.4 281.887 81.4ZM293.828 68.656L295.808 59.8H300.668L296.996 68.656H293.828ZM308.236 85.432C306.652 85.432 305.26 85.18 304.06 84.676C302.86 84.148 301.9 83.428 301.18 82.516C300.46 81.604 300.028 80.548 299.884 79.348H304.528C304.672 80.044 305.056 80.644 305.68 81.148C306.328 81.628 307.156 81.868 308.164 81.868C309.172 81.868 309.904 81.664 310.36 81.256C310.84 80.848 311.08 80.38 311.08 79.852C311.08 79.084 310.744 78.568 310.072 78.304C309.4 78.016 308.464 77.74 307.264 77.476C306.496 77.308 305.716 77.104 304.924 76.864C304.132 76.624 303.4 76.324 302.728 75.964C302.08 75.58 301.552 75.1 301.144 74.524C300.736 73.924 300.532 73.192 300.532 72.328C300.532 70.744 301.156 69.412 302.404 68.332C303.676 67.252 305.452 66.712 307.732 66.712C309.844 66.712 311.524 67.204 312.772 68.188C314.044 69.172 314.8 70.528 315.04 72.256H310.684C310.42 70.936 309.424 70.276 307.696 70.276C306.832 70.276 306.16 70.444 305.68 70.78C305.224 71.116 304.996 71.536 304.996 72.04C304.996 72.568 305.344 72.988 306.04 73.3C306.736 73.612 307.66 73.9 308.812 74.164C310.06 74.452 311.2 74.776 312.232 75.136C313.288 75.472 314.128 75.988 314.752 76.684C315.376 77.356 315.688 78.328 315.688 79.6C315.712 80.704 315.424 81.7 314.824 82.588C314.224 83.476 313.36 84.172 312.232 84.676C311.104 85.18 309.772 85.432 308.236 85.432ZM335.932 85.432C334.588 85.432 333.412 85.18 332.404 84.676C331.396 84.172 330.58 83.464 329.956 82.552L329.452 85H325.348V59.08H329.956V69.7C330.532 68.908 331.288 68.212 332.224 67.612C333.184 67.012 334.42 66.712 335.932 66.712C337.612 66.712 339.112 67.12 340.432 67.936C341.752 68.752 342.796 69.868 343.564 71.284C344.332 72.7 344.716 74.308 344.716 76.108C344.716 77.908 344.332 79.516 343.564 80.932C342.796 82.324 341.752 83.428 340.432 84.244C339.112 85.036 337.612 85.432 335.932 85.432ZM334.96 81.4C336.424 81.4 337.636 80.908 338.596 79.924C339.556 78.94 340.036 77.668 340.036 76.108C340.036 74.548 339.556 73.264 338.596 72.256C337.636 71.248 336.424 70.744 334.96 70.744C333.472 70.744 332.248 71.248 331.288 72.256C330.352 73.24 329.884 74.512 329.884 76.072C329.884 77.632 330.352 78.916 331.288 79.924C332.248 80.908 333.472 81.4 334.96 81.4ZM356.008 85.432C354.208 85.432 352.612 85.048 351.22 84.28C349.828 83.512 348.736 82.432 347.944 81.04C347.152 79.648 346.756 78.04 346.756 76.216C346.756 74.368 347.14 72.724 347.908 71.284C348.7 69.844 349.78 68.728 351.148 67.936C352.54 67.12 354.172 66.712 356.044 66.712C357.796 66.712 359.344 67.096 360.688 67.864C362.032 68.632 363.076 69.688 363.82 71.032C364.588 72.352 364.972 73.828 364.972 75.46C364.972 75.724 364.96 76 364.936 76.288C364.936 76.576 364.924 76.876 364.9 77.188H351.328C351.424 78.58 351.904 79.672 352.768 80.464C353.656 81.256 354.724 81.652 355.972 81.652C356.908 81.652 357.688 81.448 358.312 81.04C358.96 80.608 359.44 80.056 359.752 79.384H364.432C364.096 80.512 363.532 81.544 362.74 82.48C361.972 83.392 361.012 84.112 359.86 84.64C358.732 85.168 357.448 85.432 356.008 85.432ZM356.044 70.456C354.916 70.456 353.92 70.78 353.056 71.428C352.192 72.052 351.64 73.012 351.4 74.308H360.292C360.22 73.132 359.788 72.196 358.996 71.5C358.204 70.804 357.22 70.456 356.044 70.456ZM374.728 85.432C373.144 85.432 371.752 85.18 370.552 84.676C369.352 84.148 368.392 83.428 367.672 82.516C366.952 81.604 366.52 80.548 366.376 79.348H371.02C371.164 80.044 371.548 80.644 372.172 81.148C372.82 81.628 373.648 81.868 374.656 81.868C375.664 81.868 376.396 81.664 376.852 81.256C377.332 80.848 377.572 80.38 377.572 79.852C377.572 79.084 377.236 78.568 376.564 78.304C375.892 78.016 374.956 77.74 373.756 77.476C372.988 77.308 372.208 77.104 371.416 76.864C370.624 76.624 369.892 76.324 369.22 75.964C368.572 75.58 368.044 75.1 367.636 74.524C367.228 73.924 367.024 73.192 367.024 72.328C367.024 70.744 367.648 69.412 368.896 68.332C370.168 67.252 371.944 66.712 374.224 66.712C376.336 66.712 378.016 67.204 379.264 68.188C380.536 69.172 381.292 70.528 381.532 72.256H377.176C376.912 70.936 375.916 70.276 374.188 70.276C373.324 70.276 372.652 70.444 372.172 70.78C371.716 71.116 371.488 71.536 371.488 72.04C371.488 72.568 371.836 72.988 372.532 73.3C373.228 73.612 374.152 73.9 375.304 74.164C376.552 74.452 377.692 74.776 378.724 75.136C379.78 75.472 380.62 75.988 381.244 76.684C381.868 77.356 382.18 78.328 382.18 79.6C382.204 80.704 381.916 81.7 381.316 82.588C380.716 83.476 379.852 84.172 378.724 84.676C377.596 85.18 376.264 85.432 374.728 85.432ZM392.155 85C390.283 85 388.783 84.544 387.655 83.632C386.527 82.72 385.963 81.1 385.963 78.772V70.996H382.903V67.144H385.963L386.503 62.356H390.571V67.144H395.395V70.996H390.571V78.808C390.571 79.672 390.751 80.272 391.111 80.608C391.495 80.92 392.143 81.076 393.055 81.076H395.287V85H392.155ZM413.138 85.432C411.458 85.432 409.958 85.024 408.638 84.208C407.318 83.392 406.274 82.276 405.506 80.86C404.738 79.444 404.354 77.836 404.354 76.036C404.354 74.236 404.738 72.64 405.506 71.248C406.274 69.832 407.318 68.728 408.638 67.936C409.958 67.12 411.458 66.712 413.138 66.712C414.482 66.712 415.658 66.964 416.666 67.468C417.674 67.972 418.49 68.68 419.114 69.592V59.08H423.722V85H419.618L419.114 82.444C418.538 83.236 417.77 83.932 416.81 84.532C415.874 85.132 414.65 85.432 413.138 85.432ZM414.11 81.4C415.598 81.4 416.81 80.908 417.746 79.924C418.706 78.916 419.186 77.632 419.186 76.072C419.186 74.512 418.706 73.24 417.746 72.256C416.81 71.248 415.598 70.744 414.11 70.744C412.646 70.744 411.434 71.236 410.474 72.22C409.514 73.204 409.034 74.476 409.034 76.036C409.034 77.596 409.514 78.88 410.474 79.888C411.434 80.896 412.646 81.4 414.11 81.4ZM435.59 85.432C433.79 85.432 432.194 85.048 430.802 84.28C429.41 83.512 428.318 82.432 427.526 81.04C426.734 79.648 426.338 78.04 426.338 76.216C426.338 74.368 426.722 72.724 427.49 71.284C428.282 69.844 429.362 68.728 430.73 67.936C432.122 67.12 433.754 66.712 435.626 66.712C437.378 66.712 438.926 67.096 440.27 67.864C441.614 68.632 442.658 69.688 443.402 71.032C444.17 72.352 444.554 73.828 444.554 75.46C444.554 75.724 444.542 76 444.518 76.288C444.518 76.576 444.506 76.876 444.482 77.188H430.91C431.006 78.58 431.486 79.672 432.35 80.464C433.238 81.256 434.306 81.652 435.554 81.652C436.49 81.652 437.27 81.448 437.894 81.04C438.542 80.608 439.022 80.056 439.334 79.384H444.014C443.678 80.512 443.114 81.544 442.322 82.48C441.554 83.392 440.594 84.112 439.442 84.64C438.314 85.168 437.03 85.432 435.59 85.432ZM435.626 70.456C434.498 70.456 433.502 70.78 432.638 71.428C431.774 72.052 431.222 73.012 430.982 74.308H439.874C439.802 73.132 439.37 72.196 438.578 71.5C437.786 70.804 436.802 70.456 435.626 70.456ZM451.051 85L444.499 67.144H449.323L453.859 80.644L458.395 67.144H463.219L456.631 85H451.051ZM472.422 85.432C470.622 85.432 469.026 85.048 467.634 84.28C466.242 83.512 465.15 82.432 464.358 81.04C463.566 79.648 463.17 78.04 463.17 76.216C463.17 74.368 463.554 72.724 464.322 71.284C465.114 69.844 466.194 68.728 467.562 67.936C468.954 67.12 470.586 66.712 472.458 66.712C474.21 66.712 475.758 67.096 477.102 67.864C478.446 68.632 479.49 69.688 480.234 71.032C481.002 72.352 481.386 73.828 481.386 75.46C481.386 75.724 481.374 76 481.35 76.288C481.35 76.576 481.338 76.876 481.314 77.188H467.742C467.838 78.58 468.318 79.672 469.182 80.464C470.07 81.256 471.138 81.652 472.386 81.652C473.322 81.652 474.102 81.448 474.726 81.04C475.374 80.608 475.854 80.056 476.166 79.384H480.846C480.51 80.512 479.946 81.544 479.154 82.48C478.386 83.392 477.426 84.112 476.274 84.64C475.146 85.168 473.862 85.432 472.422 85.432ZM472.458 70.456C471.33 70.456 470.334 70.78 469.47 71.428C468.606 72.052 468.054 73.012 467.814 74.308H476.706C476.634 73.132 476.202 72.196 475.41 71.5C474.618 70.804 473.634 70.456 472.458 70.456ZM483.762 85V59.08H488.37V85H483.762ZM500.146 85.432C498.418 85.432 496.858 85.036 495.466 84.244C494.098 83.452 493.006 82.36 492.19 80.968C491.398 79.552 491.002 77.92 491.002 76.072C491.002 74.224 491.41 72.604 492.226 71.212C493.042 69.796 494.134 68.692 495.502 67.9C496.894 67.108 498.454 66.712 500.182 66.712C501.886 66.712 503.422 67.108 504.79 67.9C506.182 68.692 507.274 69.796 508.066 71.212C508.882 72.604 509.29 74.224 509.29 76.072C509.29 77.92 508.882 79.552 508.066 80.968C507.274 82.36 506.182 83.452 504.79 84.244C503.398 85.036 501.85 85.432 500.146 85.432ZM500.146 81.436C501.346 81.436 502.39 80.992 503.278 80.104C504.166 79.192 504.61 77.848 504.61 76.072C504.61 74.296 504.166 72.964 503.278 72.076C502.39 71.164 501.358 70.708 500.182 70.708C498.958 70.708 497.902 71.164 497.014 72.076C496.15 72.964 495.718 74.296 495.718 76.072C495.718 77.848 496.15 79.192 497.014 80.104C497.902 80.992 498.946 81.436 500.146 81.436ZM511.91 92.92V67.144H516.014L516.518 69.7C517.094 68.908 517.85 68.212 518.786 67.612C519.746 67.012 520.982 66.712 522.494 66.712C524.174 66.712 525.674 67.12 526.994 67.936C528.314 68.752 529.358 69.868 530.126 71.284C530.894 72.7 531.278 74.308 531.278 76.108C531.278 77.908 530.894 79.516 530.126 80.932C529.358 82.324 528.314 83.428 526.994 84.244C525.674 85.036 524.174 85.432 522.494 85.432C521.15 85.432 519.974 85.18 518.966 84.676C517.958 84.172 517.142 83.464 516.518 82.552V92.92H511.91ZM521.522 81.4C522.986 81.4 524.198 80.908 525.158 79.924C526.118 78.94 526.598 77.668 526.598 76.108C526.598 74.548 526.118 73.264 525.158 72.256C524.198 71.248 522.986 70.744 521.522 70.744C520.034 70.744 518.81 71.248 517.85 72.256C516.914 73.24 516.446 74.512 516.446 76.072C516.446 77.632 516.914 78.916 517.85 79.924C518.81 80.908 520.034 81.4 521.522 81.4ZM542.571 85.432C540.771 85.432 539.175 85.048 537.783 84.28C536.391 83.512 535.299 82.432 534.507 81.04C533.715 79.648 533.319 78.04 533.319 76.216C533.319 74.368 533.703 72.724 534.471 71.284C535.263 69.844 536.343 68.728 537.711 67.936C539.103 67.12 540.735 66.712 542.607 66.712C544.359 66.712 545.907 67.096 547.251 67.864C548.595 68.632 549.639 69.688 550.383 71.032C551.151 72.352 551.535 73.828 551.535 75.46C551.535 75.724 551.523 76 551.499 76.288C551.499 76.576 551.487 76.876 551.463 77.188H537.891C537.987 78.58 538.467 79.672 539.331 80.464C540.219 81.256 541.287 81.652 542.535 81.652C543.471 81.652 544.251 81.448 544.875 81.04C545.523 80.608 546.003 80.056 546.315 79.384H550.995C550.659 80.512 550.095 81.544 549.303 82.48C548.535 83.392 547.575 84.112 546.423 84.64C545.295 85.168 544.011 85.432 542.571 85.432ZM542.607 70.456C541.479 70.456 540.483 70.78 539.619 71.428C538.755 72.052 538.203 73.012 537.963 74.308H546.855C546.783 73.132 546.351 72.196 545.559 71.5C544.767 70.804 543.783 70.456 542.607 70.456ZM553.91 85V67.144H558.014L558.446 70.492C559.094 69.34 559.97 68.428 561.074 67.756C562.202 67.06 563.522 66.712 565.034 66.712V71.572H563.738C562.73 71.572 561.83 71.728 561.038 72.04C560.246 72.352 559.622 72.892 559.166 73.66C558.734 74.428 558.518 75.496 558.518 76.864V85H553.91ZM574.064 85.432C572.48 85.432 571.088 85.18 569.888 84.676C568.688 84.148 567.728 83.428 567.008 82.516C566.288 81.604 565.856 80.548 565.712 79.348H570.356C570.5 80.044 570.884 80.644 571.508 81.148C572.156 81.628 572.984 81.868 573.992 81.868C575 81.868 575.732 81.664 576.188 81.256C576.668 80.848 576.908 80.38 576.908 79.852C576.908 79.084 576.572 78.568 575.9 78.304C575.228 78.016 574.292 77.74 573.092 77.476C572.324 77.308 571.544 77.104 570.752 76.864C569.96 76.624 569.228 76.324 568.556 75.964C567.908 75.58 567.38 75.1 566.972 74.524C566.564 73.924 566.36 73.192 566.36 72.328C566.36 70.744 566.984 69.412 568.232 68.332C569.504 67.252 571.28 66.712 573.56 66.712C575.672 66.712 577.352 67.204 578.6 68.188C579.872 69.172 580.628 70.528 580.868 72.256H576.512C576.248 70.936 575.252 70.276 573.524 70.276C572.66 70.276 571.988 70.444 571.508 70.78C571.052 71.116 570.824 71.536 570.824 72.04C570.824 72.568 571.172 72.988 571.868 73.3C572.564 73.612 573.488 73.9 574.64 74.164C575.888 74.452 577.028 74.776 578.06 75.136C579.116 75.472 579.956 75.988 580.58 76.684C581.204 77.356 581.516 78.328 581.516 79.6C581.54 80.704 581.252 81.7 580.652 82.588C580.052 83.476 579.188 84.172 578.06 84.676C576.932 85.18 575.6 85.432 574.064 85.432ZM78.496 141.432C76.96 141.432 75.7 141.192 74.716 140.712C73.732 140.208 73 139.548 72.52 138.732C72.04 137.916 71.8 137.016 71.8 136.032C71.8 134.376 72.448 133.032 73.744 132C75.04 130.968 76.984 130.452 79.576 130.452H84.112V130.02C84.112 128.796 83.764 127.896 83.068 127.32C82.372 126.744 81.508 126.456 80.476 126.456C79.54 126.456 78.724 126.684 78.028 127.14C77.332 127.572 76.9 128.22 76.732 129.084H72.232C72.352 127.788 72.784 126.66 73.528 125.7C74.296 124.74 75.28 124.008 76.48 123.504C77.68 122.976 79.024 122.712 80.512 122.712C83.056 122.712 85.06 123.348 86.524 124.62C87.988 125.892 88.72 127.692 88.72 130.02V141H84.796L84.364 138.12C83.836 139.08 83.092 139.872 82.132 140.496C81.196 141.12 79.984 141.432 78.496 141.432ZM79.54 137.832C80.86 137.832 81.88 137.4 82.6 136.536C83.344 135.672 83.812 134.604 84.004 133.332H80.08C78.856 133.332 77.98 133.56 77.452 134.016C76.924 134.448 76.66 134.988 76.66 135.636C76.66 136.332 76.924 136.872 77.452 137.256C77.98 137.64 78.676 137.832 79.54 137.832ZM91.6173 141V123.144H95.6853L96.0453 126.168C96.5973 125.112 97.3893 124.272 98.4213 123.648C99.4773 123.024 100.713 122.712 102.129 122.712C104.337 122.712 106.053 123.408 107.277 124.8C108.501 126.192 109.113 128.232 109.113 130.92V141H104.505V131.352C104.505 129.816 104.193 128.64 103.569 127.824C102.945 127.008 101.973 126.6 100.653 126.6C99.3573 126.6 98.2893 127.056 97.4493 127.968C96.6333 128.88 96.2253 130.152 96.2253 131.784V141H91.6173ZM120.228 141.432C118.548 141.432 117.048 141.024 115.728 140.208C114.408 139.392 113.364 138.276 112.596 136.86C111.828 135.444 111.444 133.836 111.444 132.036C111.444 130.236 111.828 128.64 112.596 127.248C113.364 125.832 114.408 124.728 115.728 123.936C117.048 123.12 118.548 122.712 120.228 122.712C121.572 122.712 122.748 122.964 123.756 123.468C124.764 123.972 125.58 124.68 126.204 125.592V115.08H130.812V141H126.708L126.204 138.444C125.628 139.236 124.86 139.932 123.9 140.532C122.964 141.132 121.74 141.432 120.228 141.432ZM121.2 137.4C122.688 137.4 123.9 136.908 124.836 135.924C125.796 134.916 126.276 133.632 126.276 132.072C126.276 130.512 125.796 129.24 124.836 128.256C123.9 127.248 122.688 126.744 121.2 126.744C119.736 126.744 118.524 127.236 117.564 128.22C116.604 129.204 116.124 130.476 116.124 132.036C116.124 133.596 116.604 134.88 117.564 135.888C118.524 136.896 119.736 137.4 121.2 137.4ZM149.29 141.432C147.61 141.432 146.11 141.024 144.79 140.208C143.47 139.392 142.426 138.276 141.658 136.86C140.89 135.444 140.506 133.836 140.506 132.036C140.506 130.236 140.89 128.64 141.658 127.248C142.426 125.832 143.47 124.728 144.79 123.936C146.11 123.12 147.61 122.712 149.29 122.712C150.634 122.712 151.81 122.964 152.818 123.468C153.826 123.972 154.642 124.68 155.266 125.592V115.08H159.874V141H155.77L155.266 138.444C154.69 139.236 153.922 139.932 152.962 140.532C152.026 141.132 150.802 141.432 149.29 141.432ZM150.262 137.4C151.75 137.4 152.962 136.908 153.898 135.924C154.858 134.916 155.338 133.632 155.338 132.072C155.338 130.512 154.858 129.24 153.898 128.256C152.962 127.248 151.75 126.744 150.262 126.744C148.798 126.744 147.586 127.236 146.626 128.22C145.666 129.204 145.186 130.476 145.186 132.036C145.186 133.596 145.666 134.88 146.626 135.888C147.586 136.896 148.798 137.4 150.262 137.4ZM171.743 141.432C169.943 141.432 168.347 141.048 166.955 140.28C165.563 139.512 164.471 138.432 163.679 137.04C162.887 135.648 162.491 134.04 162.491 132.216C162.491 130.368 162.875 128.724 163.643 127.284C164.435 125.844 165.515 124.728 166.883 123.936C168.275 123.12 169.907 122.712 171.779 122.712C173.531 122.712 175.079 123.096 176.423 123.864C177.767 124.632 178.811 125.688 179.555 127.032C180.323 128.352 180.707 129.828 180.707 131.46C180.707 131.724 180.695 132 180.671 132.288C180.671 132.576 180.659 132.876 180.635 133.188H167.063C167.159 134.58 167.639 135.672 168.503 136.464C169.391 137.256 170.459 137.652 171.707 137.652C172.643 137.652 173.423 137.448 174.047 137.04C174.695 136.608 175.175 136.056 175.487 135.384H180.167C179.831 136.512 179.267 137.544 178.475 138.48C177.707 139.392 176.747 140.112 175.595 140.64C174.467 141.168 173.183 141.432 171.743 141.432ZM171.779 126.456C170.651 126.456 169.655 126.78 168.791 127.428C167.927 128.052 167.375 129.012 167.135 130.308H176.027C175.955 129.132 175.523 128.196 174.731 127.5C173.939 126.804 172.955 126.456 171.779 126.456ZM190.462 141.432C188.878 141.432 187.486 141.18 186.286 140.676C185.086 140.148 184.126 139.428 183.406 138.516C182.686 137.604 182.254 136.548 182.11 135.348H186.754C186.898 136.044 187.282 136.644 187.906 137.148C188.554 137.628 189.382 137.868 190.39 137.868C191.398 137.868 192.13 137.664 192.586 137.256C193.066 136.848 193.306 136.38 193.306 135.852C193.306 135.084 192.97 134.568 192.298 134.304C191.626 134.016 190.69 133.74 189.49 133.476C188.722 133.308 187.942 133.104 187.15 132.864C186.358 132.624 185.626 132.324 184.954 131.964C184.306 131.58 183.778 131.1 183.37 130.524C182.962 129.924 182.758 129.192 182.758 128.328C182.758 126.744 183.382 125.412 184.63 124.332C185.902 123.252 187.678 122.712 189.958 122.712C192.07 122.712 193.75 123.204 194.998 124.188C196.27 125.172 197.026 126.528 197.266 128.256H192.91C192.646 126.936 191.65 126.276 189.922 126.276C189.058 126.276 188.386 126.444 187.906 126.78C187.45 127.116 187.222 127.536 187.222 128.04C187.222 128.568 187.57 128.988 188.266 129.3C188.962 129.612 189.886 129.9 191.038 130.164C192.286 130.452 193.426 130.776 194.458 131.136C195.514 131.472 196.354 131.988 196.978 132.684C197.602 133.356 197.914 134.328 197.914 135.6C197.938 136.704 197.65 137.7 197.05 138.588C196.45 139.476 195.586 140.172 194.458 140.676C193.33 141.18 191.998 141.432 190.462 141.432ZM202.98 120.372C202.14 120.372 201.444 120.12 200.892 119.616C200.364 119.112 200.1 118.476 200.1 117.708C200.1 116.94 200.364 116.316 200.892 115.836C201.444 115.332 202.14 115.08 202.98 115.08C203.82 115.08 204.504 115.332 205.032 115.836C205.584 116.316 205.86 116.94 205.86 117.708C205.86 118.476 205.584 119.112 205.032 119.616C204.504 120.12 203.82 120.372 202.98 120.372ZM200.676 141V123.144H205.284V141H200.676ZM216.154 135.672C215.29 135.672 214.486 135.576 213.742 135.384L212.41 136.716C212.818 136.932 213.37 137.112 214.066 137.256C214.762 137.4 215.89 137.544 217.45 137.688C219.826 137.904 221.554 138.468 222.634 139.38C223.714 140.292 224.254 141.552 224.254 143.16C224.254 144.216 223.966 145.212 223.39 146.148C222.814 147.108 221.926 147.876 220.726 148.452C219.526 149.052 217.99 149.352 216.118 149.352C213.574 149.352 211.522 148.872 209.962 147.912C208.402 146.976 207.622 145.56 207.622 143.664C207.622 142.056 208.402 140.664 209.962 139.488C209.482 139.272 209.062 139.044 208.702 138.804C208.366 138.564 208.066 138.312 207.802 138.048V137.22L210.934 133.908C209.542 132.684 208.846 131.112 208.846 129.192C208.846 127.992 209.134 126.9 209.71 125.916C210.31 124.932 211.15 124.152 212.23 123.576C213.31 123 214.618 122.712 216.154 122.712C217.162 122.712 218.098 122.856 218.962 123.144H225.73V125.952L222.67 126.168C223.15 127.08 223.39 128.088 223.39 129.192C223.39 130.392 223.102 131.484 222.526 132.468C221.95 133.452 221.11 134.232 220.006 134.808C218.926 135.384 217.642 135.672 216.154 135.672ZM216.154 132.144C217.09 132.144 217.858 131.892 218.458 131.388C219.082 130.884 219.394 130.164 219.394 129.228C219.394 128.292 219.082 127.572 218.458 127.068C217.858 126.564 217.09 126.312 216.154 126.312C215.17 126.312 214.378 126.564 213.778 127.068C213.178 127.572 212.878 128.292 212.878 129.228C212.878 130.164 213.178 130.884 213.778 131.388C214.378 131.892 215.17 132.144 216.154 132.144ZM211.834 143.196C211.834 144.084 212.242 144.744 213.058 145.176C213.898 145.632 214.918 145.86 216.118 145.86C217.27 145.86 218.206 145.62 218.926 145.14C219.646 144.684 220.006 144.06 220.006 143.268C220.006 142.62 219.766 142.08 219.286 141.648C218.83 141.216 217.906 140.952 216.514 140.856C215.53 140.784 214.618 140.676 213.778 140.532C213.082 140.916 212.578 141.336 212.266 141.792C211.978 142.248 211.834 142.716 211.834 143.196ZM227.59 141V123.144H231.658L232.018 126.168C232.57 125.112 233.362 124.272 234.394 123.648C235.45 123.024 236.686 122.712 238.102 122.712C240.31 122.712 242.026 123.408 243.25 124.8C244.474 126.192 245.086 128.232 245.086 130.92V141H240.478V131.352C240.478 129.816 240.166 128.64 239.542 127.824C238.918 127.008 237.946 126.6 236.626 126.6C235.33 126.6 234.262 127.056 233.422 127.968C232.606 128.88 232.198 130.152 232.198 131.784V141H227.59ZM256.668 141.432C254.868 141.432 253.272 141.048 251.88 140.28C250.488 139.512 249.396 138.432 248.604 137.04C247.812 135.648 247.416 134.04 247.416 132.216C247.416 130.368 247.8 128.724 248.568 127.284C249.36 125.844 250.44 124.728 251.808 123.936C253.2 123.12 254.832 122.712 256.704 122.712C258.456 122.712 260.004 123.096 261.348 123.864C262.692 124.632 263.736 125.688 264.48 127.032C265.248 128.352 265.632 129.828 265.632 131.46C265.632 131.724 265.62 132 265.596 132.288C265.596 132.576 265.584 132.876 265.56 133.188H251.988C252.084 134.58 252.564 135.672 253.428 136.464C254.316 137.256 255.384 137.652 256.632 137.652C257.568 137.652 258.348 137.448 258.972 137.04C259.62 136.608 260.1 136.056 260.412 135.384H265.092C264.756 136.512 264.192 137.544 263.4 138.48C262.632 139.392 261.672 140.112 260.52 140.64C259.392 141.168 258.108 141.432 256.668 141.432ZM256.704 126.456C255.576 126.456 254.58 126.78 253.716 127.428C252.852 128.052 252.3 129.012 252.06 130.308H260.952C260.88 129.132 260.448 128.196 259.656 127.5C258.864 126.804 257.88 126.456 256.704 126.456ZM268.008 141V123.144H272.112L272.544 126.492C273.192 125.34 274.068 124.428 275.172 123.756C276.3 123.06 277.62 122.712 279.132 122.712V127.572H277.836C276.828 127.572 275.928 127.728 275.136 128.04C274.344 128.352 273.72 128.892 273.264 129.66C272.832 130.428 272.616 131.496 272.616 132.864V141H268.008ZM288.161 141.432C286.577 141.432 285.185 141.18 283.985 140.676C282.785 140.148 281.825 139.428 281.105 138.516C280.385 137.604 279.953 136.548 279.809 135.348H284.453C284.597 136.044 284.981 136.644 285.605 137.148C286.253 137.628 287.081 137.868 288.089 137.868C289.097 137.868 289.829 137.664 290.285 137.256C290.765 136.848 291.005 136.38 291.005 135.852C291.005 135.084 290.669 134.568 289.997 134.304C289.325 134.016 288.389 133.74 287.189 133.476C286.421 133.308 285.641 133.104 284.849 132.864C284.057 132.624 283.325 132.324 282.653 131.964C282.005 131.58 281.477 131.1 281.069 130.524C280.661 129.924 280.457 129.192 280.457 128.328C280.457 126.744 281.081 125.412 282.329 124.332C283.601 123.252 285.377 122.712 287.657 122.712C289.769 122.712 291.449 123.204 292.697 124.188C293.969 125.172 294.725 126.528 294.965 128.256H290.609C290.345 126.936 289.349 126.276 287.621 126.276C286.757 126.276 286.085 126.444 285.605 126.78C285.149 127.116 284.921 127.536 284.921 128.04C284.921 128.568 285.269 128.988 285.965 129.3C286.661 129.612 287.585 129.9 288.737 130.164C289.985 130.452 291.125 130.776 292.157 131.136C293.213 131.472 294.053 131.988 294.677 132.684C295.301 133.356 295.613 134.328 295.613 135.6C295.637 136.704 295.349 137.7 294.749 138.588C294.149 139.476 293.285 140.172 292.157 140.676C291.029 141.18 289.697 141.432 288.161 141.432ZM311.43 141.432C309.894 141.432 308.634 141.192 307.65 140.712C306.666 140.208 305.934 139.548 305.454 138.732C304.974 137.916 304.734 137.016 304.734 136.032C304.734 134.376 305.382 133.032 306.678 132C307.974 130.968 309.918 130.452 312.51 130.452H317.046V130.02C317.046 128.796 316.698 127.896 316.002 127.32C315.306 126.744 314.442 126.456 313.41 126.456C312.474 126.456 311.658 126.684 310.962 127.14C310.266 127.572 309.834 128.22 309.666 129.084H305.166C305.286 127.788 305.718 126.66 306.462 125.7C307.23 124.74 308.214 124.008 309.414 123.504C310.614 122.976 311.958 122.712 313.446 122.712C315.99 122.712 317.994 123.348 319.458 124.62C320.922 125.892 321.654 127.692 321.654 130.02V141H317.73L317.298 138.12C316.77 139.08 316.026 139.872 315.066 140.496C314.13 141.12 312.918 141.432 311.43 141.432ZM312.474 137.832C313.794 137.832 314.814 137.4 315.534 136.536C316.278 135.672 316.746 134.604 316.938 133.332H313.014C311.79 133.332 310.914 133.56 310.386 134.016C309.858 134.448 309.594 134.988 309.594 135.636C309.594 136.332 309.858 136.872 310.386 137.256C310.914 137.64 311.61 137.832 312.474 137.832ZM324.551 141V123.144H328.655L329.087 126.492C329.735 125.34 330.611 124.428 331.715 123.756C332.843 123.06 334.163 122.712 335.675 122.712V127.572H334.379C333.371 127.572 332.471 127.728 331.679 128.04C330.887 128.352 330.263 128.892 329.807 129.66C329.375 130.428 329.159 131.496 329.159 132.864V141H324.551ZM345.576 141.432C343.848 141.432 342.288 141.036 340.896 140.244C339.528 139.452 338.436 138.36 337.62 136.968C336.828 135.552 336.432 133.92 336.432 132.072C336.432 130.224 336.84 128.604 337.656 127.212C338.472 125.796 339.564 124.692 340.932 123.9C342.324 123.108 343.884 122.712 345.612 122.712C347.316 122.712 348.852 123.108 350.22 123.9C351.612 124.692 352.704 125.796 353.496 127.212C354.312 128.604 354.72 130.224 354.72 132.072C354.72 133.92 354.312 135.552 353.496 136.968C352.704 138.36 351.612 139.452 350.22 140.244C348.828 141.036 347.28 141.432 345.576 141.432ZM345.576 137.436C346.776 137.436 347.82 136.992 348.708 136.104C349.596 135.192 350.04 133.848 350.04 132.072C350.04 130.296 349.596 128.964 348.708 128.076C347.82 127.164 346.788 126.708 345.612 126.708C344.388 126.708 343.332 127.164 342.444 128.076C341.58 128.964 341.148 130.296 341.148 132.072C341.148 133.848 341.58 135.192 342.444 136.104C343.332 136.992 344.376 137.436 345.576 137.436ZM364.036 141.432C361.804 141.432 360.076 140.736 358.852 139.344C357.652 137.952 357.052 135.912 357.052 133.224V123.144H361.624V132.792C361.624 134.328 361.936 135.504 362.56 136.32C363.184 137.136 364.168 137.544 365.512 137.544C366.784 137.544 367.828 137.088 368.644 136.176C369.484 135.264 369.904 133.992 369.904 132.36V123.144H374.512V141H370.444L370.084 137.976C369.532 139.032 368.728 139.872 367.672 140.496C366.64 141.12 365.428 141.432 364.036 141.432ZM377.742 141V123.144H381.81L382.17 126.168C382.722 125.112 383.514 124.272 384.546 123.648C385.602 123.024 386.838 122.712 388.254 122.712C390.462 122.712 392.178 123.408 393.402 124.8C394.626 126.192 395.238 128.232 395.238 130.92V141H390.63V131.352C390.63 129.816 390.318 128.64 389.694 127.824C389.07 127.008 388.098 126.6 386.778 126.6C385.482 126.6 384.414 127.056 383.574 127.968C382.758 128.88 382.35 130.152 382.35 131.784V141H377.742ZM406.353 141.432C404.673 141.432 403.173 141.024 401.853 140.208C400.533 139.392 399.489 138.276 398.721 136.86C397.953 135.444 397.569 133.836 397.569 132.036C397.569 130.236 397.953 128.64 398.721 127.248C399.489 125.832 400.533 124.728 401.853 123.936C403.173 123.12 404.673 122.712 406.353 122.712C407.697 122.712 408.873 122.964 409.881 123.468C410.889 123.972 411.705 124.68 412.329 125.592V115.08H416.937V141H412.833L412.329 138.444C411.753 139.236 410.985 139.932 410.025 140.532C409.089 141.132 407.865 141.432 406.353 141.432ZM407.325 137.4C408.813 137.4 410.025 136.908 410.961 135.924C411.921 134.916 412.401 133.632 412.401 132.072C412.401 130.512 411.921 129.24 410.961 128.256C410.025 127.248 408.813 126.744 407.325 126.744C405.861 126.744 404.649 127.236 403.689 128.22C402.729 129.204 402.249 130.476 402.249 132.036C402.249 133.596 402.729 134.88 403.689 135.888C404.649 136.896 405.861 137.4 407.325 137.4ZM421.101 133.044L420.597 115.8H425.529L424.989 133.044H421.101ZM423.153 141.252C422.289 141.252 421.581 140.988 421.029 140.46C420.501 139.932 420.237 139.296 420.237 138.552C420.237 137.784 420.501 137.136 421.029 136.608C421.581 136.08 422.289 135.816 423.153 135.816C423.969 135.816 424.641 136.08 425.169 136.608C425.721 137.136 425.997 137.784 425.997 138.552C425.997 139.296 425.721 139.932 425.169 140.46C424.641 140.988 423.969 141.252 423.153 141.252Z" fill="white"/>
</svg>
