<svg width="1290" height="200" viewBox="0 0 1290 200" fill="none" xmlns="http://www.w3.org/2000/svg">
<path d="M1274.26 0H15.7445C7.04906 0 0 6.71573 0 15V185C0 193.284 7.04906 200 15.7445 200H1274.26C1282.95 200 1290 193.284 1290 185V15C1290 6.71573 1282.95 0 1274.26 0Z" fill="#8D448B"/>
<g opacity="0.5">
<path d="M778.064 69.8921C785.504 65.3248 793.888 62.4751 802.293 61.6699C809.457 60.9683 816.901 61.7457 823.99 63.8917L824.234 61.0445C816.864 58.9164 809.361 58.1759 802.028 58.8771C793.2 59.73 784.413 62.7131 776.605 67.5007C768.796 72.2883 762.17 78.7861 757.416 86.2836C756.074 88.3932 754.895 90.5727 753.864 92.8069C741.681 96.4224 730.84 103.133 720.9 109.948C718.479 111.602 716.038 113.324 713.686 114.983C705.07 121.03 696.172 127.278 686.614 131.916C675.83 137.148 663.749 140.38 651.674 141.263C639.26 142.173 627.218 140.708 615.88 136.897C611.232 135.324 606.715 133.356 602.437 131.045L602.179 134.059C606.331 136.205 610.58 138.038 614.998 139.521C621.904 141.848 629.077 143.329 636.408 143.957C641.49 144.392 646.663 144.416 651.884 144.037C664.297 143.128 676.736 139.8 687.84 134.413C697.588 129.679 706.59 123.371 715.281 117.26C717.633 115.601 720.073 113.893 722.479 112.252C731.631 105.985 741.515 99.8219 752.456 96.1839C749.152 104.883 748.27 114.041 750.068 122.435C751.395 128.663 754.306 134.522 758.477 139.385C762.8 144.428 768.198 148.038 774.101 149.816C780.14 151.649 786.861 151.399 793.038 149.158C799.376 146.846 804.509 142.599 807.516 137.204C810.838 131.249 811.591 123.926 809.631 116.595C807.777 109.665 803.574 103.219 798.083 98.9019C792.763 94.7248 786.295 92.0165 778.898 90.8653C772.204 89.8165 764.946 90.1323 757.911 91.7683C757.754 91.8108 757.598 91.8394 757.44 91.8819C758.146 90.5013 758.933 89.1417 759.774 87.8147C764.304 80.6477 770.624 74.4595 778.064 69.8921ZM758.533 94.4658C765.226 92.9124 772.118 92.6212 778.466 93.6125C785.395 94.6955 791.417 97.2118 796.357 101.091C801.376 105.032 805.234 110.944 806.927 117.301C808.695 123.93 808.033 130.519 805.074 135.834C799.62 145.636 786.356 150.6 774.89 147.142C769.504 145.519 764.558 142.2 760.577 137.564C756.712 133.05 754.015 127.628 752.775 121.856C750.945 113.347 752.085 103.945 755.874 95.1475C756.763 94.8878 757.649 94.6699 758.533 94.4658Z" fill="white"/>
<path d="M850 70.307L823.441 46.0615L823.054 56.7363L841.648 66.873L822.912 60.6774L822.911 60.6876L822.911 60.6754L814.712 63.379L822.695 66.6615L822.421 74.2449L850 70.307Z" fill="white"/>
</g>
<g opacity="0.5">
<rect x="1044.47" y="39.8921" width="22.0884" height="3.6814" rx="1.8407" transform="rotate(42.1773 1044.47 39.8921)" fill="white"/>
<rect x="1095.75" y="54.7236" width="22.0884" height="3.6814" rx="1.8407" transform="rotate(-42.18 1095.75 54.7236)" fill="white"/>
<rect x="1081" y="32" width="23" height="3" rx="1.5" transform="rotate(90 1081 32)" fill="white"/>
</g>
<g opacity="0.5">
<rect width="22.3383" height="3.72305" rx="1.86152" transform="matrix(0.741071 -0.671427 -0.671427 -0.741071 1044.09 159.614)" fill="white"/>
<rect width="22.3383" height="3.72305" rx="1.86152" transform="matrix(0.741039 0.671462 0.671462 -0.741039 1095.95 144.615)" fill="white"/>
<rect width="23.2602" height="3.03394" rx="1.51697" transform="matrix(0 -1 -1 0 1081.03 167.596)" fill="white"/>
</g>
</svg>
